<svg xmlns="http://www.w3.org/2000/svg" width="24" height="24" fill="none" viewBox="0 0 24 24">
    <path fill="#FF441F" fill-rule="evenodd" d="M6.071 13.08C3.823 13.08 2 14.903 2 17.151c0 2.248 1.823 4.07 4.071 4.07 2.248 0 4.071-1.822 4.071-4.07s-1.823-4.07-4.071-4.07zm0 2c1.144 0 2.071.927 2.071 2.071 0 1.143-.927 2.07-2.071 2.07-1.144 0-2.071-.927-2.071-2.07 0-1.144.927-2.07 2.071-2.07zm11.858-2c-2.248 0-4.071 1.823-4.071 4.071 0 2.248 1.823 4.07 4.07 4.07 2.249 0 4.072-1.822 4.072-4.07s-1.823-4.07-4.071-4.07zm0 2c1.144 0 2.07.927 2.07 2.071 0 1.143-.926 2.07-2.07 2.07-1.144 0-2.071-.927-2.071-2.07 0-1.144.927-2.07 2.07-2.07z" clip-rule="evenodd" opacity=".5"/>
    <path fill="#FF441F" fill-rule="evenodd" d="M14.671 4.339c0 1.017-.823 1.84-1.839 1.84s-1.839-.823-1.839-1.84c0-1.016.823-1.839 1.84-1.839 1.015 0 1.838.823 1.838 1.839zm-4.373 2.367c.355-.647 1.25-.69 1.675-.121l.171.264c.049.07.112.158.19.258.266.345.59.693.97 1.017.854.727 1.855 1.223 3.011 1.394.546.081.924.59.843 1.136-.081.546-.59.924-1.136.843-1.553-.23-2.89-.894-4.014-1.85-.23-.197-.44-.394-.629-.587l-.06-.062-1.123 2.045 2.322 2.226c.17.161.275.376.302.606l.006.116v4.034c0 .552-.447 1-1 1-.512 0-.935-.386-.993-.884l-.007-.116v-3.608l-2.567-2.46c-.298-.285-.387-.72-.237-1.094l.052-.11 2.224-4.047zm-5.837-3.22l-2.32 4.29c-.236.437-.073.983.364 1.22l3.361 1.816c.438.237.984.074 1.22-.363l2.32-4.29c.236-.438.073-.984-.364-1.22L5.68 3.122c-.437-.237-.983-.074-1.22.364zm1.154 1.646l1.778.961L5.93 8.8l-1.778-.96 1.463-2.708z" clip-rule="evenodd"/>
</svg>
