<svg xmlns="http://www.w3.org/2000/svg" width="24" height="24" fill="none" viewBox="0 0 24 24">
    <path fill="#FF441F" fill-rule="evenodd" d="M19.28 16.84c.512 0 .963-.297 1.02.2l.007.117v1.125c0 2.22-.798 3.641-2.392 4.321l-.267.107c-.932.347-1.886.424-3.948.414l-1.69-.013c-.553 0-1-.448-1-1 0-.553.447-1 1-1l1.922.013c1.784.002 2.54-.08 3.198-.36.755-.322 1.134-.94 1.174-2.245l.003-.237v-1.125c0-.552.42-.318.972-.318z" clip-rule="evenodd" opacity=".5"/>
    <path fill="#FF441F" fill-rule="evenodd" d="M11.98 1c3.752 0 6.99 2.713 8.004 6.55.141.534-.177 1.081-.711 1.223-.534.14-1.081-.178-1.223-.712C17.26 5.071 14.788 3 11.98 3 9.163 3 6.688 5.08 5.902 8.079c-.14.534-.686.854-1.22.714-.534-.14-.854-.686-.714-1.22C4.976 3.723 8.219 1 11.979 1zm5.708 8.642h.925c2.335 0 4.189 2.038 4.189 4.507s-1.853 4.508-4.189 4.508h-.925c-.955 0-1.688-.808-1.688-1.758v-5.5c0-.95.733-1.757 1.688-1.757zM18 11.641v5.015h.613c1.186 0 2.189-1.102 2.189-2.507 0-1.404-1.003-2.507-2.189-2.507L18 11.641zM6.113 9.642h-.925C2.853 9.642 1 11.68 1 14.149c0 2.47 1.852 4.508 4.188 4.508h.925c.955 0 1.688-.808 1.688-1.758v-5.5c0-.95-.733-1.757-1.688-1.757zm-.312 1.999v5.015h-.613C4.002 16.657 3 15.555 3 14.15l.005-.174c.079-1.32 1.046-2.333 2.183-2.333l.613-.001z" clip-rule="evenodd"/>
</svg>
