<svg xmlns="http://www.w3.org/2000/svg" width="24" height="24" fill="none" viewBox="0 0 24 24">
    <path fill="#FF441F" fill-rule="evenodd" d="M10.875 21.842c-.083 0-.166-.01-.25-.031C7.313 20.958 5 17.97 5 14.547V6.672c0-1.447 1.178-2.625 2.625-2.625s2.625 1.178 2.625 2.625v6.702c0 .553-.448 1-1 1s-1-.447-1-1V6.672c0-.34-.286-.625-.625-.625S7 6.333 7 6.672v7.875c0 2.51 1.696 4.7 4.124 5.326.535.138.856.684.719 1.218-.116.45-.523.75-.968.75" clip-rule="evenodd" opacity=".5"/>
    <path fill="#FF441F" fill-rule="evenodd" d="M17.375 15.318h-3.56c-.338 0-.624-.286-.624-.625s.286-.625.624-.625h3.56c.33 0 .593.259.616.582-.002.05-.01.097-.012.147-.052.292-.296.521-.604.521zm-7.126-1.943V9.816c0-.339.287-.625.625-.625.34 0 .625.286.625.625v3.559c0 .062-.019.12-.037.177-.024.053-.053.103-.076.158v-.002c-.112.171-.296.292-.511.292-.338 0-.626-.286-.626-.625zm3.25-3.559c0-.339.287-.625.625-.625.345 0 .625.28.625.625v2.252h-.934c-.107 0-.21.019-.316.032V9.816zm3.25 0V4.625c0-.339.287-.625.626-.625.345 0 .625.28.625.625v7.526c-.201-.049-.409-.083-.625-.083h-.625V9.816zM20 4.625C20 3.177 18.823 2 17.376 2s-2.626 1.177-2.626 2.625v2.649c-.2-.05-.408-.083-.625-.083-.616 0-1.176.222-1.625.579-.447-.357-1.008-.579-1.625-.579-1.446 0-2.624 1.177-2.624 2.625v3.559C8.25 14.822 9.428 16 10.874 16c.22 0 .428-.037.63-.089.441.832 1.306 1.407 2.312 1.407h3.423c-.72 1.234-1.905 2.181-3.363 2.556-.534.137-.856.683-.72 1.217.117.452.524.751.968.751.083 0 .167-.009.25-.031 3.088-.795 5.28-3.448 5.568-6.576.037-.175.058-.355.058-.542 0-.022-.006-.044-.008-.066.002-.027.008-.052.008-.08V4.625z" clip-rule="evenodd"/>
</svg>
