<svg xmlns="http://www.w3.org/2000/svg" width="24" height="24" fill="none" viewBox="0 0 24 24">
    <path fill="#FF441F" fill-rule="evenodd" d="M9.57 10.455c.713 0 1.29-.577 1.29-1.289s-.577-1.29-1.29-1.29c-.711 0-1.288.578-1.288 1.29 0 .712.577 1.289 1.289 1.289zm4.307-2.138c.39-.391 1.024-.391 1.414 0 .36.36.389.927.083 1.32l-.083.094-5.156 5.156c-.39.39-1.023.39-1.414 0-.36-.36-.388-.928-.083-1.32l.083-.095 5.156-5.155zm1.813 5.68c0 .711-.577 1.288-1.29 1.288-.711 0-1.288-.577-1.288-1.289s.577-1.289 1.289-1.289 1.289.577 1.289 1.29z" clip-rule="evenodd" opacity=".5"/>
    <path fill="#FF441F" fill-rule="evenodd" d="M7.126 5.05L5.29 5.03l-.137.005C4.117 5.114 3.4 6.103 3.64 7.105l.01.038.36 2.03-1.351 1.098-.116.092c-.731.64-.73 1.84.038 2.508l.036.028 1.33 1.32-.3 1.854-.007.026c-.252 1.046.541 2.077 1.641 2.075l1.683.092.902 1.853.017.044c.414.99 1.657 1.355 2.545.71l1.481-1.103 1.826 1.204c.845.512 1.998.136 2.394-.811l.755-2.01 1.838.021.137-.005c1.036-.079 1.754-1.068 1.513-2.07l-.01-.038-.36-2.03 1.467-1.19c.731-.64.73-1.84-.038-2.507l-.036-.03-1.33-1.321.3-1.852.007-.026c.252-1.046-.54-2.077-1.641-2.075l-1.684-.093-.9-1.848-.018-.047c-.413-.992-1.657-1.356-2.545-.71l-1.482 1.102-1.711-1.129c-.853-.62-2.095-.255-2.508.737L7.126 5.05zm2.467-.876l1.643 1.085.132.078c.54.287 1.202.241 1.7-.128l1.385-1.032.901 1.85.069.127c.272.45.75.74 1.283.768l1.651.089-.3 1.858-.017.153c-.028.458.14.909.469 1.235l1.335 1.327-1.287 1.044-.107.094c-.376.362-.552.898-.458 1.424l.357 2.024-1.725-.02-.143.005c-.614.05-1.15.447-1.369 1.03l-.694 1.845-1.642-1.085-.132-.078c-.54-.287-1.202-.241-1.7.128l-1.386 1.032-.9-1.85-.069-.127c-.273-.451-.753-.743-1.288-.768l-1.646-.09.3-1.857.017-.153c.029-.46-.14-.912-.471-1.237L4.167 11.62l1.288-1.044.116-.104c.37-.364.542-.893.45-1.414l-.359-2.024 1.726.02c.673.005 1.277-.407 1.513-1.036l.692-1.844z" clip-rule="evenodd"/>
</svg>
