<?xml version="1.0" encoding="UTF-8"?>
<svg width="24px" height="24px" viewBox="0 0 24 24" version="1.1" xmlns="http://www.w3.org/2000/svg" xmlns:xlink="http://www.w3.org/1999/xlink">
    <title>0890B1BF-85A0-40B9-BA86-783C9FFD3202</title>
    <g id="icons" stroke="none" stroke-width="1" fill="none" fill-rule="evenodd">
        <g id="icons/outline/location" fill="#FF441F">
            <path d="M12,2 C16.5121664,2 20.17,5.65783359 20.17,10.17 C20.17,10.5510027 20.137941,10.9370501 20.0752646,11.3275734 C19.7123669,13.5887113 18.3598657,15.9184779 16.3405685,18.2475697 C15.5283381,19.18441 14.6607222,20.0578342 13.7928997,20.8465804 C13.6408179,20.9848044 13.4940272,21.1155578 13.3533941,21.2384885 L12.8627512,21.6570071 L12.6182572,21.8559759 C12.2554787,22.1413414 11.7445213,22.1413414 11.3817428,21.8559759 L11.2148815,21.7211695 L10.6466059,21.2384885 C10.5059728,21.1155578 10.3591821,20.9848044 10.2071003,20.8465804 C9.33927777,20.0578342 8.47166193,19.18441 7.65943151,18.2475697 C5.64013428,15.9184779 4.28763313,13.5887113 3.92473545,11.3275734 C3.86205903,10.9370501 3.83,10.5510027 3.83,10.17 C3.83,5.65783359 7.48783359,2 12,2 Z M12,4 C8.59240309,4 5.83,6.76240309 5.83,10.17 C5.83,10.4425712 5.8532754,10.7228482 5.89946448,11.0106425 C6.1911673,12.8281803 7.37321832,14.8643361 9.17056849,16.9374303 C9.77553416,17.635208 10.4167532,18.2984721 11.065117,18.9140286 L11.5522747,19.3665446 L12,19.7650782 L12.1446195,19.6382178 L12.4477253,19.3665446 C13.2603715,18.6279471 14.0732244,17.8096525 14.8294315,16.9374303 C16.6267817,14.8643361 17.8088327,12.8281803 18.1005355,11.0106425 C18.1467246,10.7228482 18.17,10.4425712 18.17,10.17 C18.17,6.76240309 15.4075969,4 12,4 Z M12,5.91 C14.2864589,5.91 16.14,7.76354114 16.14,10.05 C16.14,12.3364589 14.2864589,14.19 12,14.19 C9.71354114,14.19 7.86,12.3364589 7.86,10.05 C7.86,7.76354114 9.71354114,5.91 12,5.91 Z M12,7.91 C10.8181106,7.91 9.86,8.86811064 9.86,10.05 C9.86,11.2318894 10.8181106,12.19 12,12.19 C13.1818894,12.19 14.14,11.2318894 14.14,10.05 C14.14,8.86811064 13.1818894,7.91 12,7.91 Z" id="color"></path>
        </g>
    </g>
</svg>