<svg xmlns="http://www.w3.org/2000/svg" width="75" height="46" fill="none" viewBox="0 0 75 46">
    <path fill="#FF441F" fill-rule="evenodd" d="M4.525 34.064v3.83h1.837c1.24 0 2.021-.7 2.021-1.915 0-1.19-.666-1.915-2.02-1.915H4.524zm0 7.895V46H0V30h7.373C11.093 30 13 32.64 13 35.793c0 3.433-2.182 6.166-6.155 6.166h-2.32zm16.064-7.895v3.294h1.538c1.443 0 2.072-.654 2.072-1.612 0-1.004-.512-1.682-2.072-1.682h-1.538zm0 11.936H16V30h7.221c3.285 0 5.661 1.892 5.661 5.535 0 2.22-1.258 4.089-3.402 4.93L30 46h-5.824l-3.587-4.928V46zM37 46h-5V30h5v16zm7.366-9.016V46H40V30h5.995l3.517 8.245L53.005 30H59v16h-4.414v-9.016L50.692 46h-2.431l-3.895-9.016zM74.954 30H63v16h12v-3.924h-7.498v-2.172h6.01v-3.878h-6.01v-2.102h7.452V30z" clip-rule="evenodd"/>
    <path fill="#FFBC09" fill-rule="evenodd" d="M53.216 24c1.78-3.823 3.708-7.597 5.784-11.312.017-.017-4.086-.978-6.883.511.01.001.53 2.04-.718 3.4-1.723 1.88-5.007 1.15-6.503-.148-2.709-2.387-2.191-5.711.67-9.287-.005.04-1.917-4.767-8.067-7.164-6.15 2.395-8.062 7.204-8.066 7.164 2.86 3.576 3.38 6.9.67 9.287-1.495 1.297-4.78 2.03-6.502.149-1.248-1.361-.728-3.399-.718-3.4-2.797-1.49-6.9-.528-6.883-.512 2.075 3.715 4.004 7.489 5.784 11.312 10.356-2.235 21.076-2.235 31.432 0" clip-rule="evenodd"/>
</svg>
