<svg xmlns="http://www.w3.org/2000/svg" width="45" height="45" fill="none" viewBox="0 0 45 45">
    <path fill="#FF441F" fill-rule="evenodd" d="M20.332 23.329l7.742-7.743c.732-.732 1.92-.732 2.651 0 .733.732.733 1.92 0 2.652l-8.905 8.905c-.045.058-.094.114-.148.167-.37.372-.857.556-1.343.552-.482.001-.963-.182-1.33-.55-.053-.052-.103-.108-.148-.165l-4.574-4.556c-.734-.731-.736-1.918-.005-2.652.73-.734 1.918-.736 2.651-.005l3.409 3.395z" clip-rule="evenodd" opacity=".5"/>
    <path fill="#FF441F" fill-rule="evenodd" d="M21.94 3.217c.365-.115.756-.115 1.122 0l13.331 4.181c.782.245 1.314.97 1.314 1.79V26.68c0 3.991-2.831 7.598-7.442 10.932-1.531 1.106-3.162 2.105-4.791 2.984l-.825.434-.96.476-.423.198c-.487.218-1.044.218-1.53 0l-.424-.198-.96-.476-.824-.434c-1.63-.879-3.26-1.878-4.791-2.984-4.612-3.334-7.443-6.941-7.443-10.932V9.187c0-.82.532-1.544 1.314-1.789L21.94 3.217zm.56 3.754l-11.456 3.593v16.117c0 2.44 2.169 5.203 5.89 7.893 1.385 1.001 2.879 1.917 4.373 2.723l.417.221.777.397.776-.397.417-.221c1.495-.806 2.988-1.722 4.374-2.723 3.72-2.69 5.889-5.453 5.889-7.893V10.564L22.5 6.971z" clip-rule="evenodd"/>
</svg>
