<svg xmlns="http://www.w3.org/2000/svg" width="81" height="34" viewBox="0 0 81 34">
    <path fill="#FF441F" fill-rule="evenodd" d="M60.555 14.229c-.1.543-.258 1.17-.47 1.861-.213.691-.486 1.42-.808 2.159-.35.745-.713 1.442-1.077 2.07-.36.622-.72 1.157-1.065 1.59-.337.422-.65.734-.928.928-.21.146-.327.162-.367.162-.019 0-.034-.003-.05-.01-.035-.016-.152-.094-.203-.465-.048-.34-.022-.787.075-1.328.1-.557.257-1.19.47-1.877.21-.687.483-1.416.81-2.165.324-.743.678-1.436 1.054-2.061.374-.624.738-1.153 1.083-1.573.335-.41.648-.717.93-.914.211-.146.327-.162.367-.162.02 0 .035.003.049.01.035.015.152.094.204.465.047.34.022.78-.074 1.31m-14.038 0c-.1.543-.258 1.17-.47 1.861-.214.695-.487 1.423-.808 2.159-.351.747-.714 1.444-1.077 2.07-.361.623-.72 1.158-1.065 1.59-.337.422-.649.734-.929.928-.21.146-.326.162-.366.162-.019 0-.034-.003-.05-.01-.035-.016-.152-.094-.203-.465-.048-.339-.023-.785.075-1.328.099-.556.257-1.187.47-1.877.21-.688.483-1.416.81-2.165.325-.745.68-1.438 1.053-2.061.376-.625.74-1.154 1.084-1.573.336-.41.65-.718.93-.914.21-.146.327-.162.367-.162.02 0 .035.003.049.01.035.015.153.094.204.465.047.34.022.78-.074 1.31m-15.21-.14c-.062.552-.182 1.182-.357 1.874-.176.69-.416 1.416-.715 2.16-.298.74-.615 1.436-.944 2.068-.322.618-.647 1.145-.968 1.567-.312.41-.605.716-.872.909-.197.143-.307.159-.344.159-.017 0-.032-.003-.048-.01-.036-.016-.16-.097-.224-.474-.06-.345-.065-.79-.017-1.324.05-.542.163-1.165.337-1.851.174-.687.415-1.414.715-2.16.302-.75.62-1.445.945-2.069.32-.617.646-1.15.969-1.585.31-.42.604-.73.87-.923.197-.143.307-.159.345-.159.017 0 .032.003.046.01.038.016.167.1.246.482.07.34.075.786.015 1.327m30.757-4.587c.735 0 1.367.225 1.879.67.494.429.847 1.042 1.048 1.821.195.755.235 1.668.12 2.715-.115 1.034-.417 2.214-.9 3.507-.455 1.222-.977 2.297-1.549 3.194-.277.436-.562.844-.851 1.221-.037.048.018.111.071.082.168-.091.335-.19.5-.298.376-.243.737-.505 1.08-.782.957-.775 1.652-1.823 1.99-3.001.202-.709.426-1.412.67-2.105.4-1.141.827-2.206 1.27-3.166.44-.957.806-1.673 1.088-2.13.32-.52.768-.844 1.335-.964.53-.112 1.037-.104 1.503.022.477.13.867.366 1.158.704.317.369.386.789.198 1.215-.056.147-.203.483-.437 1-.235.52-.499 1.127-.806 1.859-.295.703-.598 1.464-.9 2.26-.295.782-.526 1.512-.686 2.17-.156.64-.217 1.172-.182 1.581.034.391.183.391.264.391.114 0 .316-.054.63-.31.302-.25.621-.551.95-.899.329-.349.645-.725.937-1.117.267-.357.496-.673.682-.94.162-.233.42-.366.707-.366.303 0 .597.152.75.387.149.23.145.504-.013.75-.198.309-.544.827-1.058 1.586-.509.75-1.118 1.523-1.81 2.299-.704.787-1.473 1.486-2.288 2.077-.857.623-1.723.938-2.572.938-.768 0-1.341-.266-1.704-.792-.33-.48-.498-1.124-.498-1.914v-.126c.002-.094-.108-.147-.181-.088-.161.129-.327.257-.496.383-.998.743-2.15 1.373-3.426 1.874-1.139.448-2.394.675-3.73.675l-.272-.003-.273-.009c-.91-.002-1.585-.287-2.008-.85-.075-.099-.144-.201-.205-.306-.049-.084-.176-.07-.204.024-.137.457-.267.898-.387 1.32-.26.907-.482 1.692-.677 2.4-.196.71-.366 1.357-.506 1.926-.135.548-.229.992-.277 1.321l-.003.012c-.123.623-.544.842-.877.917-.148.033-.302.05-.458.05-.282 0-.58-.055-.885-.162-.464-.164-.881-.447-1.241-.842-.373-.41-.562-.923-.562-1.525 0-.122.031-.389.27-1.372.179-.725.42-1.627.719-2.682.202-.715.432-1.493.687-2.325.03-.1-.084-.183-.17-.124-.889.605-1.886 1.128-2.974 1.555-1.14.448-2.394.675-3.73.675-.18 0-.364-.004-.546-.012-.909-.002-1.584-.287-2.008-.85-.075-.099-.143-.2-.204-.306-.05-.084-.176-.069-.204.024-.138.458-.268.9-.388 1.32-.261.91-.483 1.696-.676 2.4-.196.71-.367 1.357-.507 1.926-.135.549-.228.993-.277 1.321l-.002.012c-.123.623-.545.842-.878.917-.148.033-.301.05-.457.05-.282 0-.58-.055-.886-.162-.464-.164-.88-.447-1.24-.842-.373-.41-.562-.923-.562-1.525 0-.123.03-.39.27-1.372.18-.732.421-1.634.718-2.682.176-.623.371-1.287.59-2.004.032-.108-.1-.19-.184-.113-.373.34-.757.657-1.151.947-.845.623-1.705.939-2.555.939-.768 0-1.342-.266-1.704-.792-.146-.212-.26-.457-.343-.732-.073-.245-.387-.32-.565-.135-.25.26-.525.497-.82.706-.384.272-.813.5-1.277.678-.478.182-.995.275-1.537.275-.733 0-1.376-.223-1.91-.664-.52-.426-.905-1.03-1.146-1.797-.234-.743-.32-1.656-.256-2.715.064-1.046.302-2.22.708-3.491.865-2.636 1.993-4.593 3.354-5.82 1.386-1.25 2.792-1.884 4.179-1.884.587 0 1.084.118 1.475.35.385.23.682.534.883.904.134.249.232.516.292.8.011.05.079.06.104.015.07-.126.137-.239.2-.342.32-.518.762-.842 1.315-.963.517-.112 1.023-.105 1.502.021.491.13.888.367 1.18.705.317.369.386.789.197 1.215-.055.145-.197.473-.436 1-.233.516-.505 1.141-.806 1.859-.298.711-.601 1.472-.9 2.26-.296.782-.527 1.513-.686 2.17-.156.641-.217 1.173-.182 1.581.034.391.183.391.263.391.115 0 .317-.054.63-.31.173-.143.353-.304.537-.481.713-.687 1.191-1.437 1.51-2.37.424-1.238.87-2.46 1.328-3.638.489-1.253.966-2.378 1.418-3.344.236-.5.61-.837 1.108-.999.467-.152.946-.184 1.417-.095.47.09.882.277 1.224.557.152.124.273.258.363.399.024.038.052.042.085.011.404-.373.85-.715 1.331-1.02.704-.449 1.501-.676 2.369-.676.734 0 1.367.225 1.878.67.495.43.848 1.042 1.049 1.821.195.754.235 1.668.12 2.715-.115 1.033-.418 2.214-.9 3.507-.456 1.223-.978 2.298-1.55 3.194-.277.436-.562.844-.851 1.221-.037.048.019.111.072.082.167-.091.334-.19.5-.298.269-.174.53-.358.782-.55.958-.728 1.673-1.724 2.054-2.858l.15-.443c.45-1.33.926-2.64 1.414-3.894.49-1.255.967-2.38 1.419-3.344.235-.5.608-.836 1.108-.999.467-.152.946-.184 1.417-.095.47.09.881.277 1.223.556.152.125.273.259.363.4.024.038.052.042.085.011.404-.373.85-.715 1.331-1.02.705-.449 1.502-.676 2.369-.676zM16.069 3.274c1.054 0 2.11.122 3.14.361 1.037.242 1.978.61 2.795 1.094.827.49 1.506 1.105 2.018 1.828.522.736.786 1.599.786 2.565 0 1.04-.232 2.016-.69 2.9-.454.875-1.079 1.674-1.856 2.375-.77.696-1.683 1.31-2.714 1.824-.85.424-1.753.786-2.691 1.077-.06.019-.081.05-.078.11.02.46.053.915.1 1.353.053.503.123.993.209 1.458.084.457.186.902.301 1.323.09.326.19.643.297.944.068.192.14.38.213.556.147.355.309.695.481 1.01.169.31.352.604.544.874.187.263.388.51.597.736.204.22.42.422.642.602.216.175.444.334.677.47.227.134.465.25.708.346.239.094.486.17.735.225.25.055.507.09.767.107.259.016.529.013.798-.011.274-.024.554-.068.832-.133.285-.066.575-.153.864-.26.296-.11.595-.244.89-.395.113-.058.227-.12.34-.184.368-.21.838-.11 1.085.23.248.34.193.81-.127 1.086-.157.135-.315.267-.471.393-.379.306-.759.59-1.13.843-.352.24-.71.464-1.064.663-.177.1-.363.198-.552.292-.363.182-.73.342-1.093.476-.361.133-.724.244-1.078.328-.353.084-.709.145-1.056.18-.248.025-.496.038-.738.038-.098 0-.196-.002-.294-.007-.336-.014-.67-.053-.994-.116-.16-.031-.322-.069-.48-.113-.153-.041-.31-.09-.467-.147-.301-.108-.6-.241-.886-.396-.28-.152-.556-.327-.818-.521-.212-.157-.42-.33-.617-.513-.237-.22-.468-.465-.687-.725-.216-.257-.423-.535-.615-.826-.193-.29-.375-.6-.543-.92-.167-.32-.326-.66-.47-1.01-.143-.347-.276-.715-.397-1.096-.119-.374-.228-.77-.324-1.178-.095-.407-.178-.829-.247-1.255-.062-.377-.114-.768-.155-1.165-.012-.12-.185-.136-.22-.019-.15.518-.286 1.02-.406 1.5-.151.602-.29 1.15-.416 1.642-.123.482-.21.87-.26 1.153-.1.502-.433.819-.967.922-.459.09-.952.052-1.46-.11-.502-.161-.958-.44-1.357-.831-.418-.41-.63-.925-.63-1.532 0-.494.126-1.275.384-2.386.252-1.085.615-2.371 1.081-3.824.462-1.441 1.023-3.03 1.666-4.72.552-1.452 1.172-2.914 1.844-4.356.22-.472.675-.797 1.2-.857 1.187-.136 2.217-.102 3.09.1.526.122.808.685.588 1.17-.563 1.238-1.082 2.473-1.546 3.675-.375.973-.735 1.936-1.075 2.873-.033.093.063.179.153.138.453-.205.9-.447 1.337-.723.716-.453 1.368-.994 1.939-1.607.568-.613 1.034-1.304 1.385-2.055.346-.744.522-1.552.522-2.404 0-1.095-.308-1.904-.915-2.403-.615-.505-1.481-.762-2.575-.762-1.165 0-2.23.272-3.165.809-.96.55-1.79 1.226-2.467 2.01-.682.79-1.22 1.634-1.597 2.509-.374.867-.564 1.627-.564 2.26 0 .453-.243.78-.684.921-.387.124-.814.106-1.252-.055-.421-.154-.811-.459-1.16-.905-.351-.448-.529-1.055-.529-1.804 0-.654.252-1.424.77-2.354.504-.907 1.25-1.79 2.215-2.625.964-.833 2.18-1.556 3.618-2.148 1.446-.596 3.117-.898 4.966-.898zm57.367-.692c1.613 0 2.92 1.29 2.92 2.88 0 1.59-1.307 2.88-2.92 2.88s-2.92-1.29-2.92-2.88c0-1.59 1.307-2.88 2.92-2.88z"/>
</svg>
