<svg xmlns="http://www.w3.org/2000/svg" width="45" height="45" fill="none" viewBox="0 0 45 45">
    <path fill="#FF441F" fill-rule="evenodd" d="M38.407 12.648c1.035 0 1.875.84 1.875 1.875V29.58c0 1.035-.84 1.875-1.875 1.875H22.094c-1.035 0-1.875-.84-1.875-1.875V14.523c0-1.035.84-1.875 1.875-1.875h16.313zm-1.875 3.75H23.969v11.307h12.563V16.398z" clip-rule="evenodd" opacity=".5"/>
    <path fill="#FF441F" fill-rule="evenodd" d="M36.532 34.635l.012-.219c.109-.932.901-1.656 1.863-1.656 1.035 0 1.875.84 1.875 1.875 0 3.119-2.527 5.647-5.646 5.647H9.395c-3.117 0-5.644-2.529-5.644-5.647V9.395c0-3.118 2.527-5.647 5.644-5.647h25.241c3.119 0 5.646 2.529 5.646 5.648 0 1.035-.84 1.874-1.875 1.874-1.036 0-1.875-.839-1.875-1.874l-.011-.207c-.103-.951-.908-1.691-1.885-1.691H9.395c-1.045 0-1.894.85-1.894 1.898v25.239c0 1.048.849 1.897 1.894 1.897h25.241c1.047 0 1.896-.849 1.896-1.897zm-3.797-12.583c0-1.373-1.114-2.482-2.483-2.482-1.37 0-2.482 1.109-2.482 2.482 0 1.373 1.113 2.48 2.482 2.48 1.368 0 2.483-1.107 2.483-2.48z" clip-rule="evenodd"/>
</svg>
